<svg id="Layer_1" enable-background="new 0 0 512 512" height="512" viewBox="0 0 512 512" width="512"
    xmlns="http://www.w3.org/2000/svg" xmlns:xlink="http://www.w3.org/1999/xlink">
    <radialGradient id="SVGID_1_" cx="203.976" cy="258.242" gradientUnits="userSpaceOnUse"
        r="58.171">
        <stop offset="0" stop-color="#570700" />
        <stop offset="1" stop-color="#ffb720" />
    </radialGradient>
    <g>
        <path
            d="m401.582 383.362v73.51h-257.84v-191.68h139.67c53.81 0 99.22 35.97 113.5 85.17 1.26 4.33 2.27 8.76 3.02 13.28 1.09 6.41 1.65 13 1.65 19.72z"
            fill="#d4771c" />
        <path d="m163.792 317.022h159.02v139.85h-159.02z" fill="#e0d9d9" />
        <path
            d="m368.582 320.552s-1.42 19.4-7.01 43.36c-1.37 5.9-3 12.08-4.93 18.31-2.86 9.27-6.37 18.65-10.66 27.43-3.68 7.54-7.94 14.63-12.88 20.8-9.32 11.7-21.03 20.14-35.69 22.17-11.71 1.63-20.9 1.3-28.08-.3-30.93-6.85-24.95-37.24-24.95-37.24l-29-11.18s-6.01 52.38-53.71 45.66c-.02 0-.04-.01-.06-.01-8.85-1.25-15.36-6.37-20.1-13.88-4.38-6.94-7.25-15.92-9.04-25.78-1.81-9.96-2.53-20.81-2.61-31.35-.06-7.44.2-14.73.62-21.43 1.18-19.13 3.63-33.58 3.63-33.58z"
            fill="#f49a20" />
        <path
            d="m129.862 378.542c-.06-7.44.2-14.73.62-21.43 4.84-1.9 10.74-3.4 17.82-3.97-8.38 6.77-14.39 16.66-18.44 25.4z"
            fill="#570700" />
        <path
            d="m243.92 420.235c.059-3.124.458-5.15.458-5.15l-29-11.18s-2.087 18.189-13.562 31.755c-14.332 16.944-41.713 11.873-49.75-8.813-7.826-20.142-15.742-45.549-12.958-60.392 5.13-27.35 167.58-4.08 167.58-4.08s12.579 49.183-17.962 77.65c-17.177 16.01-45.25 3.686-44.806-19.79z"
            fill="#d4771c" />
        <path
            d="m155.992 389.872c-10.77 12.93-13.69 34.53-14.48 45.8-4.38-6.94-7.25-15.92-9.04-25.78 4.21-6.98 11.93-16.74 23.52-20.02z"
            fill="#570700" />
        <path
            d="m208.558 127.55s-5.072-24.05-12.184-56.077-89.685 27.69-81.079 82.304 46.267 46.377 46.267 46.377z"
            fill="#570700" />
        <path
            d="m176.095 133.66s-11.589-21.832-12.345-53.324c-3.275 8.062 0 22.926 0 22.926s-40.814 16.88-26.705 65.504c6.876-10.92 39.05-35.106 39.05-35.106z"
            fill="#fff" />
        <path
            d="m303.034 125.869s9.963 6.845 18.025-41.641 82.245-17.632 99.881 44.544-33.523 82.62-33.523 82.62z"
            fill="#360500" />
        <path
            d="m294.116 112.958s9.963 6.046 18.025-36.783 82.245-15.575 99.881 39.347-33.523 72.981-33.523 72.981z"
            fill="#570700" />
        <path
            d="m326.321 128.984s19.245-17.728 25.522-49.177c7.431 7.597.635 21.167.635 21.167s56.638 35.844 16.898 78.829z"
            fill="#fff" />
        <path
            d="m239.671 366.577c-47.163-.077-148.224-31.246-152.252-111.357-.786-14.651 6.55-32.271 17.479-49.957v-.011c.011-.033.022-.044.022-.044 23.985-38.844 65.165-78.048 75.209-87.043 4.76-4.258 19.302-7.315 37.676-9.094 4.552-.448 9.334-.819 14.269-1.103 6.747-.393 13.767-.633 20.819-.731h.011c3.275-.044 6.561-.055 9.826-.033 27.501.175 53.877 2.664 65.198 7.598 21.671 9.443 58.298 53.844 78.659 99.707.011.022.011.044.022.055.262.579.513 1.146.753 1.725.513 1.135.994 2.271 1.463 3.417 3.275 7.85 6.026 15.721 8.122 23.417 14.78 54.424-68.529 123.628-177.276 123.454z"
            fill="#ffb720" />
        <path
            d="m350.437 218.604c0 23.931-26.234 35.23-52.621 35.841-28.407.677-56.988-11.037-53.08-32.654 0 0 8.712-98.801 51.781-99.26 34.75-.371 48.516 46.824 52.545 77.622.972 7.392 1.375 13.833 1.375 18.451z"
            fill="#fff" />
        <path
            d="m204.135 221.792c2.544 19.586-14.083 31.038-32.435 32.523-20.71 1.67-43.604-9.356-43.593-35.71 0-5.884 1.943-14.706 5.339-24.684 4.771-14.007 12.413-30.252 21.529-43.702 10.753-15.885 23.592-27.872 36.234-27.686 14.356.207 18.177 21.529 18.155 44.346-.032 26.441-5.229 54.913-5.229 54.913z"
            fill="#fff" />
        <ellipse cx="170.216" cy="195.062" fill="#570700" rx="48.239" ry="33.75"
            transform="matrix(.528 -.849 .849 .528 -85.306 236.667)" />
        <path
            d="m221.678 209.487c-21.013 0-25.304 4.291-25.304 25.304 0-21.013-4.291-25.304-25.304-25.304 21.013 0 25.304-4.291 25.304-25.304 0 21.013 4.291 25.304 25.304 25.304z"
            fill="#fff" />
        <path
            d="m187.737 226.333c-12.141 0-14.62 2.479-14.62 14.62 0-12.141-2.479-14.62-14.62-14.62 12.141 0 14.62-2.479 14.62-14.62-.001 12.141 2.479 14.62 14.62 14.62z"
            fill="#fff" />
        <path
            d="m171.7 254.314c-20.71 1.67-43.604-9.356-43.593-35.71 0-5.884 1.943-14.706 5.339-24.684 0 0-3.371 20.821 5.591 37.586 11.164 20.884 32.663 22.808 32.663 22.808z"
            fill="#570700" />
        <path d="m407.36 216.289c-.306-.633-.557-1.212-.753-1.725.262.579.513 1.147.753 1.725z"
            fill="#e0d9d9" />
        <path
            d="m239.671 366.577c-47.163-.077-148.224-31.246-152.252-111.357-.786-14.651 6.55-32.271 17.479-49.957-.546 1.277-10.186 24.597-4.083 44.051 1.638 5.207 4.4 10.142 8.767 14.302 21.169 20.153 44.346-37.283 99.773-37.283s71.552 68.528 128.988 59.455c39.914-6.299 63.418-25.787 70.111-45.066 2.533-7.271 2.664-14.52.371-21.016 3.275 7.85 6.026 15.721 8.122 23.417 14.78 54.424-68.529 123.628-177.276 123.454z"
            fill="#e0d9d9" />
        <path
            d="m396.923 280.57c-61.268 105.992-289.691 99.273-296.109-31.256 1.638 5.207 4.4 10.142 8.767 14.302 21.169 20.153 44.346-37.283 99.773-37.283s71.552 68.528 128.988 59.455c39.914-6.299 63.418-25.787 70.111-45.066.655-.939 1.266-1.9 1.845-2.871.48-.797.928-1.594 1.354-2.402 2.106 14.193-5.004 28.298-14.729 45.121z"
            fill="#fff" />
        <g>
            <path
                d="m178.724 233.373s16.851-49.478 46.247-47.857 21.679 32.457 19.102 51.593-64.148 21.104-65.349-3.736z"
                fill="url(#SVGID_1_)" />
            <path
                d="m244.74 244.782c-1.891 2.125-4.368 4.418-7.212 6.66-5.037 3.983-11.212 7.848-17.253 10.459h-.017c-4.769 2.058-9.421 3.33-13.387 3.297-4.301-.05-9.02-1.841-13.521-4.568-4.518-2.711-8.819-6.359-12.283-10.107 0 0 0-.017-.017-.017-1.155-1.238-2.209-2.493-3.163-3.715-.017-.033-.033-.067-.05-.084-.017 0-.017-.017-.033-.033-.385-.502-.736-1.004-1.071-1.489-4.769-6.844-5.505-12.634 1.991-11.814 0 0 14.441 11.329 41.367 8.083 6.71-.803 14.19-2.527 22.407-5.522.736-.284 1.489-.569 2.242-.853 5.672.349 4.585 4.549 0 9.703z"
                fill="#c25276" />
            <path
                d="m244.74 244.782c-1.891 2.125-4.368 4.418-7.212 6.66-5.037 3.983-11.212 7.848-17.253 10.459h-.017c-4.769 2.058-9.421 3.33-13.387 3.297-4.301-.05-9.02-1.841-13.521-4.568-4.518-2.711-8.819-6.359-12.283-10.107 0 0 0-.017-.017-.017-1.155-1.238-2.209-2.493-3.163-3.715v-.033s-.017-.017-.05-.05c-.017 0-.017-.017-.033-.033-.218-.184-.77-.72-1.071-1.489-.335-.904-.551-2.477 1.155-3.364 5.432-2.824 18.826 15.194 27.963 15.194 9.135-.001 36.111-20.132 38.889-12.234z"
                fill="#923e59" />
            <path
                d="m237.527 251.442c-5.037 3.983-11.212 7.848-17.253 10.459h-.017s-6.175-2.828-.904-6.811c5.289-3.999 22.056-11.797 18.174-3.648z"
                fill="#581c30" />
            <path
                d="m193.349 260.629c-4.518-2.711-8.819-6.359-12.283-10.107 0 0 0-.017-.017-.017-3.899-5.589 5.255-4.92 12.216 2.042 6.945 6.944.084 8.082.084 8.082z"
                fill="#581c30" />
            <path
                d="m232.289 242.573c-6.158 1.607-11.613 1.238-12.149-.837-.033-.1-.05-.184-.05-.284 6.71-.803 14.19-2.527 22.407-5.522.485 2.075-4.066 5.037-10.208 6.643z"
                fill="#ce7591" />
        </g>
        <g fill="#e0d9d9">
            <path d="m374.622 313.5-22.927-9.321 16.88 16.375z" />
            <path d="m335.32 336.175-15.117-19.148 10.078 24.69z" />
            <path d="m291.315 352.634-8.398-16.795v18.371z" />
            <path d="m100.814 290.272 22.207-9.524-14.109 15.453z" />
            <path d="m123.021 314.34 22.17-13.773-15.452 19.987z" />
            <path d="m154.261 337.518 9.07-10.749-4.535 14.948z" />
            <path
                d="m209.365 358.009 3.462-22.17 4.398 22.17h8.25l2.19-11.085 4.864 11.085-15.304 4.367z" />
        </g>
        <g fill="#570700">
            <path
                d="m255.584 168.848s11.712-47.828 40.937-46.316 40.87 30.442 44.621 43.068c-7.082-12.08-23.894-30.809-43.734-30.975-21.266-.178-29.356 4.535-41.824 34.223z" />
            <path
                d="m209.365 166.878s-4.168-29.182-23.528-35.612c-11.505-3.821-30.862 18.952-30.862 18.952 10.753-15.885 23.592-27.872 36.234-27.686 14.356.207 18.177 21.529 18.156 44.346z" />
            <path
                d="m350.437 218.604c0 23.931-26.234 35.23-52.621 35.841 0 0 24.48-3.944 40.275-22.825 10.959-13.101 10.971-31.467 10.971-31.467.972 7.392 1.375 13.833 1.375 18.451z" />
            <path d="m252.892 107.237-25.23 46.54 4.411-45.809c6.746-.393 13.766-.633 20.819-.731z" />
            <path
                d="m269.147 124.552s-12.773-11.092-30.656-11.092-29.127 9.039-29.127 9.039 1.725-7.271 8.439-13.428c4.552-.448 9.334-.819 14.269-1.103 6.747-.393 13.767-.633 20.819-.731h.011c3.275-.044 6.561-.055 9.826-.033 7.555 7.085 6.419 17.348 6.419 17.348z" />
            <path
                d="m327.761 265.198s52.403 2.093 69.535-23.678-22.674-67.593-22.674-67.593 28.721 72.837-46.861 91.271z" />
        </g>
        <g>
            <path
                d="m224.744 420.802c-3.96 3.05-8.63 5.5-13.71 7.2-8.35 2.79-17.81 3.56-27.09 1.66-15.5-3.17-30.49-13.77-38.92-34.76-.95-2.36-1.82-4.85-2.59-7.47-10.52-35.68 7.26-39.58 7.26-39.58s42-13.03 64.69-3.12c2.99 1.31 5.76 3.3 8.27 5.79 4.88 4.85 8.76 11.62 11.31 19.16 6.12 18.06 4.6 40.47-9.22 51.12z"
                fill="#ffb720" />
            <path
                d="m145.024 394.899c8.43 20.99 23.42 31.59 38.92 34.76 14.93 3.05 30.33-.79 40.8-8.86 13.82-10.65 15.34-33.06 9.22-51.12 0 0 6.12 24.45-8.03 25.65.76 6.47-24.29 16.44-35.61 6.74 0 0-22.98 14.97-45.3-7.17z"
                fill="#f49a20" />
            <path
                d="m224.744 420.802c-3.96 3.05-8.63 5.5-13.71 7.2-2.71-3.48-5.85-9.96-7.26-21.89-2.74-23.18 6.77-37.29 6.16-43.74 11.35 3.04 12.68-11.41 12.72-11.85 4.88 4.85 8.76 11.62 11.31 19.16 6.12 18.06 4.6 40.47-9.22 51.12z"
                fill="#d4771c" />
            <g fill="#570700">
                <path
                    d="m183.944 431.154c-.829 0-1.5-.667-1.5-1.495 0-.486.235-.952.632-1.233.137-.101 14.466-11.227-2.81-49.661-.34-.756-.002-1.644.753-1.983.755-.34 1.644-.002 1.983.753 17.89 39.8 3.359 52.163 1.902 53.271-.26.216-.595.348-.96.348z" />
                <path
                    d="m224.745 422.3c-.129 0-.261-.017-.392-.052-.8-.216-1.273-1.04-1.057-1.84 8.038-29.745-10.927-52.753-11.119-52.982-.533-.633-.452-1.579.182-2.112.633-.533 1.579-.453 2.112.18.203.24 20.179 24.401 11.722 55.698-.181.667-.787 1.108-1.448 1.108z" />
            </g>
        </g>
        <ellipse cx="299.003" cy="202.65" fill="#570700" rx="46.834" ry="52.981"
            transform="matrix(.515 -.857 .857 .515 -28.633 354.718)" />
        <path
            d="m240.143 342.496c-11.154.001-23.667-6.629-30.553-17.469-9.119-14.357-4.416-58.138-4.211-59.994.091-.823.832-1.414 1.656-1.327.823.091 1.417.832 1.327 1.655-.049.444-4.796 44.585 3.761 58.057 8.649 13.617 26.798 20.09 38.08 13.582 10.828-6.247 9.494-14.006 9.432-14.333-.153-.81.374-1.598 1.182-1.757.809-.16 1.594.357 1.759 1.164.084.411 1.917 10.146-10.874 17.523-3.421 1.974-7.396 2.898-11.559 2.899z"
            fill="#570700" />
        <path
            d="m195.333 339.838c-1.028 0-2.11-.092-3.254-.292-15.361-2.682-18.174-15.175-18.286-15.705-.172-.811.346-1.606 1.157-1.778.806-.163 1.604.345 1.777 1.153.101.461 2.568 11.053 15.868 13.375 13.01 2.275 16.656-12.109 16.805-12.723.195-.805 1.01-1.295 1.812-1.104.805.196 1.299 1.007 1.104 1.812-.042.165-3.876 15.262-16.983 15.262z"
            fill="#570700" />
        <g>
            <path
                d="m307.018 391.445c-.77 2.62-1.64 5.11-2.59 7.47-8.43 20.99-23.42 31.59-38.92 34.76-14.93 3.05-30.33-.79-40.8-8.86-13.82-10.65-15.34-33.06-9.22-51.12 3.87-11.42 10.79-21.1 19.58-24.95 22.69-9.91 64.69 3.12 64.69 3.12s17.78 3.9 7.26 39.58z"
                fill="#ffb720" />
            <path
                d="m304.428 398.915c-8.43 20.99-23.42 31.59-38.92 34.76-14.93 3.05-30.33-.79-40.8-8.86-13.82-10.65-15.34-33.06-9.22-51.12 0 0-6.12 24.45 8.03 25.65-.76 6.47 24.29 16.44 35.61 6.74 0 0 22.98 14.97 45.3-7.17z"
                fill="#f49a20" />
            <g fill="#570700">
                <path
                    d="m265.508 435.17c-.386 0-.737-.145-1.003-.383-1.676-1.302-15.782-13.8 1.945-53.237.34-.756 1.227-1.093 1.983-.753s1.093 1.228.753 1.983c-17.276 38.435-2.947 49.561-2.8 49.669.385.282.622.738.622 1.216 0 .828-.672 1.505-1.5 1.505z" />
                <path
                    d="m224.707 426.314c-.661 0-1.267-.44-1.447-1.108-8.457-31.296 11.519-55.458 11.722-55.698.534-.633 1.48-.713 2.112-.18.633.533.714 1.479.182 2.112-.192.229-19.157 23.238-11.119 52.982.216.8-.257 1.624-1.057 1.84-.132.036-.264.052-.393.052z" />
            </g>
        </g>
        <path
            d="m344.235 197.686c-36.462 0-43.908 7.446-43.908 43.908 0-36.462-7.446-43.908-43.908-43.908 36.462 0 43.908-7.446 43.908-43.908 0 36.461 7.446 43.908 43.908 43.908z"
            fill="#fff" />
        <path
            d="m209.365 193.92c-36.462 0-43.908 7.446-43.908 43.908 0-36.462-7.446-43.908-43.908-43.908 36.462 0 43.908-7.446 43.908-43.908-.001 36.462 7.446 43.908 43.908 43.908z"
            fill="#fff" />
        <path
            d="m294.513 209.487c-21.013 0-25.304 4.291-25.304 25.304 0-21.013-4.291-25.304-25.304-25.304 21.013 0 25.304-4.291 25.304-25.304-.001 21.013 4.291 25.304 25.304 25.304z"
            fill="#fff" />
        <path
            d="m306.72 233.292c-12.141 0-14.62 2.479-14.62 14.62 0-12.141-2.479-14.62-14.62-14.62 12.141 0 14.62-2.479 14.62-14.62-.001 12.14 2.479 14.62 14.62 14.62z"
            fill="#fff" />
        <path
            d="m333.46 177.609c-9.85 0-11.861 2.012-11.861 11.861 0-9.85-2.012-11.861-11.861-11.861 9.85 0 11.861-2.012 11.861-11.861-.001 9.85 2.011 11.861 11.861 11.861z"
            fill="#fff" />
        <path
            d="m162.919 174.958c-9.85 0-11.861 2.012-11.861 11.861 0-9.85-2.012-11.861-11.861-11.861 9.85 0 11.861-2.012 11.861-11.861-.001 9.85 2.011 11.861 11.861 11.861z"
            fill="#fff" />
        <path
            d="m345.982 409.652c-3.68 7.54-7.94 14.63-12.88 20.8-2.65-12.28-7.59-32.71-14.34-50.2 15.52 10.98 23.43 22.31 27.22 29.4z"
            fill="#570700" />
        <path d="m361.572 363.912c-1.37 5.9-3 12.08-4.93 18.31-8.21-10.53-28.88-28.01-28.88-28.01z"
            fill="#570700" />
        <path d="m399.932 363.642-31.35-6.46 28.33-6.82c1.26 4.33 2.27 8.76 3.02 13.28z"
            fill="#570700" />
        <path d="m401.582 398.742v20.26l-44.05-13.65z" fill="#570700" />
        <path d="m339.992 449.182 61.59-8.52v16.21h-23.12z" fill="#570700" />
    </g>
</svg>