<svg id="&#x421;&#x43B;&#x43E;&#x439;_1" viewBox="0 0 128 128" xmlns="http://www.w3.org/2000/svg">
    <path
        d="m111.17 68.29a14.82 14.82 0 1 0 -16.66 0 25 25 0 0 0 -7.44 4.14 35.13 35.13 0 0 0 -13.18-7.23 20.36 20.36 0 1 0 -19.77 0 35.13 35.13 0 0 0 -13.18 7.23 25 25 0 0 0 -7.44-4.14 14.83 14.83 0 1 0 -16.66 0 25.21 25.21 0 0 0 -16.84 23.71 2 2 0 0 0 4 0 21.17 21.17 0 0 1 34.05-16.76 35 35 0 0 0 -9.22 23.71 2 2 0 0 0 4 0 31.17 31.17 0 0 1 62.33 0 2 2 0 0 0 4 0 35 35 0 0 0 -9.22-23.71 21.17 21.17 0 0 1 34.06 16.76 2 2 0 0 0 4 0 25.21 25.21 0 0 0 -16.83-23.71zm-96.83-12.29a10.83 10.83 0 1 1 10.83 10.86 10.84 10.84 0 0 1 -10.83-10.86zm33.3-8.62a16.36 16.36 0 1 1 16.36 16.4 16.38 16.38 0 0 1 -16.36-16.36zm44.36 8.62a10.83 10.83 0 1 1 10.83 10.83 10.84 10.84 0 0 1 -10.83-10.83z" />
</svg>