<svg width="512" height="512" viewBox="0 0 512 512" fill="none" xmlns="http://www.w3.org/2000/svg">
    <g clip-path="url(#clip0_1_2)">
        <circle cx="256" cy="256" r="256" fill="white" />
        <path
            d="M363.553 271.195C362.587 269.607 361.236 268.29 359.624 267.366L359.294 267.938L284.694 224.868L342.477 135.358C345.903 130.33 344.604 123.478 339.577 120.053C336.102 117.685 331.583 117.503 327.928 119.581L151.833 224.986C146.635 228.148 144.985 234.925 148.146 240.122C149.112 241.71 150.464 243.027 152.076 243.952L226.485 286.912L168.892 376.532C166.188 380.812 166.75 386.383 170.252 390.037L172.924 391.58C176.414 393.608 180.734 393.563 184.183 391.466L359.868 286.331C365.065 283.169 366.715 276.392 363.553 271.195ZM212.681 349.155L251.124 289.18C254.374 284.038 252.84 277.234 247.697 273.984C247.571 273.903 247.443 273.826 247.313 273.751L179.199 234.426L298.358 163.307L259.946 222.789C256.594 227.866 257.991 234.699 263.067 238.051C263.257 238.176 263.45 238.296 263.647 238.408L331.951 277.843L212.681 349.155Z"
            fill="black" />
    </g>
    <defs>
        <clipPath id="clip0_1_2">
            <rect width="512" height="512" fill="white" />
        </clipPath>
    </defs>
</svg>
    