<svg id="Layer_1" enable-background="new 0 0 512 512" height="512" viewBox="0 0 512 512" width="512"
    xmlns="http://www.w3.org/2000/svg">
    <path clip-rule="evenodd"
        d="m462.88 337.781c0 43.236-35.17 78.351-78.351 78.351h-257.057c-43.181 0-78.352-35.116-78.352-78.351v-163.562c0-14.43 3.951-27.983 10.809-39.615l125.428 125.428c18.765 18.82 43.894 29.19 70.67 29.19 26.721 0 51.85-10.37 70.615-29.19l125.428-125.428c6.859 11.632 10.809 25.184 10.809 39.615v163.562zm-78.352-241.913h-257.056c-17.832 0-34.293 6.035-47.461 16.076l126.69 126.745c13.114 13.058 30.616 20.301 49.326 20.301 18.655 0 36.158-7.243 49.271-20.301l126.69-126.745c-13.167-10.041-29.627-16.076-47.46-16.076zm0-30.232h-257.056c-59.861 0-108.584 48.723-108.584 108.584v163.562c0 59.916 48.723 108.584 108.584 108.584h257.056c59.861 0 108.584-48.668 108.584-108.584v-163.563c0-59.861-48.723-108.583-108.584-108.583z"
        fill-rule="evenodd" />
</svg>