<svg id="Layer_1" enable-background="new 0 0 512 512" viewBox="0 0 512 512"
    xmlns="http://www.w3.org/2000/svg">
    <g>
        <circle cx="267" cy="256" fill="#5b3374" r="245" />
        <g fill="#814aa0">
            <path
                d="m461.34 241.628h-100.764c-11.046 0-20-8.954-20-20 0-11.046 8.954-20 20-20h100.764c11.046 0 20 8.954 20 20 0 11.045-8.954 20-20 20z" />
            <path
                d="m287.452 30.53h-59.491c-11.075 0-20.581 9.059-20.509 20.134.001.1.002.2.004.3.111 5.232-4.007 9.566-9.24 9.566h-40.765c-11.046 0-20 8.954-20 20 0 11.046 8.954 20 20 20h70c11.046 0 20-8.954 20-20 0-.169-.002-.337-.006-.504-.129-5.204 4.035-9.496 9.24-9.496h30.287c10.845 0 20.081-8.433 20.466-19.271.406-11.377-8.698-20.729-19.986-20.729z" />
            <path
                d="m99.894 204.88h-30c-11.046 0-20-8.954-20-20 0-11.046 8.954-20 20-20h30c11.046 0 20 8.954 20 20 0 11.046-8.955 20-20 20z" />
        </g>
        <path
            d="m224.156 294.084c.31-.841-21.755-7.878-32.293-7.878h-39.978c-30.817-15.715-52.097-47.774-52.173-84.513-.017-8.165.997-16.09 2.917-23.654.735-2.893-2.12-5.428-4.866-4.258-34.485 14.706-58.498 49.219-57.748 89.249.066 3.5.323 6.956.763 10.357 1.28 9.902-2.858 19.789-11.023 25.536-17.996 12.668-29.755 33.603-29.755 57.284 0 38.66 31.34 70 70 70h121.863c38.66 0 70-31.34 70-70 0-27.013-15.3-50.451-37.707-62.123z"
            fill="#0593fc" />
        <path
            d="m261.862 216.207c-.845 0-1.688.012-2.528.035-21.793.609-42.649-8.208-58.326-23.358-17.092-16.516-40.363-26.678-66.008-26.678-13.534 0-26.407 2.83-38.06 7.931-5.101 11.652-7.931 24.525-7.931 38.06 0 48.718 36.671 88.87 83.916 94.36.749 48.479 40.281 87.547 88.938 87.547 49.02 0 88.777-39.652 88.948-88.632.172-49.133-39.815-89.266-88.949-89.265z"
            fill="#08a9f1" />
        <path
            d="m384.935 284.577c-88.85.004-161.008-72.152-161.007-161.002 0-17.182 2.692-33.735 7.677-49.26.956-2.978-2.055-5.699-4.922-4.449-56.906 24.825-96.682 81.586-96.683 147.637-.001 88.595 72.406 161.002 161 161.001 66.29 0 123.222-40.064 147.905-97.299 1.135-2.631-1.353-5.4-4.077-4.512-15.708 5.116-32.478 7.883-49.893 7.884z"
            fill="#fed402" />
        <path
            d="m291 56.504c-23.536 0-45.893 5.051-66.045 14.127-9.076 20.153-14.127 42.509-14.127 66.045 0 88.918 72.082 161 161 161 23.536 0 45.893-5.051 66.045-14.127 9.076-20.152 14.127-42.508 14.127-66.045 0-88.918-72.082-161-161-161z"
            fill="#fee903" />
        <path
            d="m276.746 340.132c4.112-9.906 6.458-20.73 6.642-32.08.781-48.168-38.083-88.274-86.253-88.938-48.891-.674-88.735 38.756-88.735 87.491 0 3.482.203 6.916.599 10.291 1.152 9.834-3.187 19.389-11.16 25.26-15.939 11.738-26.281 30.636-26.281 51.949 0 35.608 28.866 64.474 64.474 64.474h82.953l22.482-6.132c35.608 0 64.474-22.734 64.474-58.342-.001-22.586-11.614-42.458-29.195-53.973z"
            fill="#01d0fb" />
        <circle cx="274.341" cy="105.42" fill="#fed402" r="22.107" />
        <circle cx="270.455" cy="111.518" fill="#fdb441" r="10.944" />
        <circle cx="399.958" cy="223.599" fill="#fed402" r="22.107" />
        <circle cx="330.275" cy="161.354" fill="#ffc344" r="31.573" />
        <circle cx="335.502" cy="156.126" fill="#fea713" r="17.581" />
        <path
            d="m388.863 337.994c-5.232-2.97-9.216-7.689-11.527-13.244-14.555-34.991-49.07-59.593-89.331-59.593-40.275 0-74.8 24.619-89.346 59.63-2.306 5.55-6.283 10.266-11.507 13.237-19.494 11.089-32.642 32.049-32.642 56.08 0 35.608 28.866 64.474 64.474 64.474h138.1c35.608 0 64.474-28.866 64.474-64.474 0-24.053-13.172-45.029-32.695-56.11z"
            fill="#62dbfb" />
        <path
            d="m134.753 126.423-12.308 6.571c-.656.35-1.184.9-1.508 1.57l-6.069 12.564c-1.249 2.586-4.906 2.66-6.259.126l-6.571-12.308c-.35-.656-.9-1.184-1.57-1.508l-12.564-6.069c-2.586-1.249-2.66-4.906-.126-6.259l12.308-6.571c.656-.35 1.184-.9 1.508-1.57l6.069-12.564c1.249-2.586 4.906-2.66 6.259-.126l6.571 12.308c.35.656.9 1.184 1.57 1.508l12.564 6.069c2.586 1.249 2.66 4.906.126 6.259z"
            fill="#62dbfb" />
        <path
            d="m480.919 116.162-12.308 6.571c-.656.35-1.184.9-1.508 1.57l-6.069 12.564c-1.249 2.586-4.906 2.66-6.259.126l-6.571-12.308c-.35-.656-.9-1.184-1.57-1.508l-12.564-6.069c-2.586-1.249-2.66-4.906-.126-6.259l12.308-6.571c.656-.35 1.184-.9 1.508-1.57l6.069-12.564c1.249-2.586 4.906-2.66 6.259-.126l6.571 12.308c.35.656.9 1.184 1.57 1.508l12.564 6.069c2.586 1.249 2.66 4.906.126 6.259z"
            fill="#ffc344" />
        <path
            d="m470.122 342.476-12.308 6.571c-.656.35-1.184.9-1.508 1.57l-6.069 12.564c-1.249 2.586-4.906 2.66-6.259.126l-6.571-12.308c-.35-.656-.9-1.184-1.57-1.508l-12.564-6.069c-2.586-1.249-2.66-4.906-.126-6.259l12.308-6.571c.656-.35 1.184-.9 1.508-1.57l6.069-12.564c1.249-2.586 4.906-2.66 6.259-.126l6.571 12.308c.35.656.9 1.184 1.57 1.508l12.564 6.069c2.586 1.25 2.66 4.907.126 6.259z"
            fill="#fff5f5" />
    </g>
    <g />
    <g />
    <g />
    <g />
    <g />
    <g />
    <g />
    <g />
    <g />
    <g />
    <g />
    <g />
    <g />
    <g />
    <g />
</svg>