<svg id="Layer_1" enable-background="new 0 0 512 512" viewBox="0 0 512 512"
    xmlns="http://www.w3.org/2000/svg">
    <g>
        <path
            d="m86.139 302.156 9.507 9.877-23.465 116.922c17.118 19.413 37.259 36.09 59.692 49.299l181.446-81.384 2.053-.139 9.11-4.047 145.555-6.41c19.715-35.301 30.965-75.972 30.965-119.277 0-96.172-55.421-179.385-136.059-219.488l-51.903 15.064-31.42-39.247c-8.421-.875-16.968-1.33-25.621-1.33-121.833 0-222.878 88.933-241.803 205.418l71.96 74.573z"
            fill="#02c0fc" />
        <path
            d="m251.419 28.009c-3.353 3.517-8.39 4.866-13.052 3.494l-31.777-9.349c-7.116-2.094-14.535 2.194-16.274 9.405l-7.764 32.196c-1.141 4.734-4.837 8.429-9.571 9.571l-32.197 7.764c-7.211 1.739-11.498 9.158-9.405 16.274l9.349 31.778c1.371 4.662.023 9.699-3.495 13.052l-23.987 22.866c-5.362 5.112-5.362 13.669 0 18.781l23.987 22.866c3.517 3.353 4.866 8.39 3.494 13.052l-9.349 31.777c-2.093 7.116 2.194 14.535 9.405 16.274l32.196 7.764c4.734 1.141 8.429 4.837 9.571 9.571l7.764 32.197c1.739 7.21 9.158 11.498 16.274 9.405l31.778-9.349c4.662-1.371 9.699-.023 13.052 3.494l22.866 23.987c5.112 5.363 13.669 5.363 18.781 0l22.866-23.987c3.353-3.517 8.39-4.866 13.052-3.494l31.777 9.349c7.116 2.093 14.535-2.194 16.274-9.405l7.764-32.197c1.141-4.733 4.837-8.429 9.571-9.571z"
            fill="#ffda4c" />
        <path
            d="m435.972 251.537-9.349-31.778c-1.372-4.662-.023-9.699 3.494-13.052l23.987-22.866c5.362-5.112 5.362-13.669 0-18.781l-23.987-22.866c-3.517-3.353-4.866-8.39-3.494-13.052l15.792-30.875c3.442-6.884-1.674-16-9.581-17.395l-38.463-7.544c-4.733-1.142-8.43-4.837-9.571-9.571l-7.764-32.197c-1.739-7.211-9.158-11.498-16.274-9.405l-31.778 9.349c-4.662 1.372-9.699.023-13.052-3.495l-22.866-23.987c-5.112-5.363-13.669-5.363-18.781 0l-22.866 23.987s-60.814 208.874 142.951 247.566l32.197-7.764c7.21-1.739 11.498-9.158 9.405-16.274z"
            fill="#fef156" />
        <path
            d="m329.112 137.787-84.943-68.03c-42.291 15.967-72.371 56.814-72.371 104.693 0 61.788 50.089 111.877 111.877 111.877 25.414 0 48.844-8.479 67.628-22.756z"
            fill="#ffc242" />
        <path
            d="m283.676 62.574c-13.909 0-27.221 2.545-39.506 7.184-5.314 56.159 2.189 153.621 107.135 193.814 26.885-20.433 44.248-52.747 44.248-89.121-.001-61.788-50.09-111.877-111.877-111.877z"
            fill="#ffda4c" />
        <path
            d="m171.946 180.318c-12.792-9.69-28.73-15.445-46.018-15.445-37.162 0-68.105 26.566-74.912 61.739-5.436-1.421-11.139-2.183-17.021-2.183-6.894 0-13.54 1.051-19.798 2.986-2.094 12.887-3.2 26.105-3.2 39.584 0 62.092 23.11 118.779 61.183 161.957 21.839-.511 41.201-10.989 53.747-27.052l54.161-104.989z"
            fill="#6ad9fb" />
        <path
            d="m287.05 288.38c-.717 0-1.431.015-2.142.039-1.638-35.616-31.025-63.991-67.046-63.991-5.882 0-11.585.762-17.021 2.183-3.641-18.81-14.188-35.154-28.894-46.294-.214.048-55.186 12.314-45.159 65.576 0 0-62.512 24.837-17.562 78.418 0 0-34.11 39.088 16.703 77.59 9.499 12.162 22.906 21.118 38.335 24.976 35.522 14.381 109.036-7.125 109.036-7.125l58.572-111.834c-11.178-12.013-27.118-19.538-44.822-19.538z"
            fill="#ade9f7" />
        <path
            d="m336.694 307.74c-34.236 0-62.742 24.474-69.014 56.878-5.008-1.309-10.262-2.011-15.681-2.011-33.185 0-60.258 26.141-61.768 58.953-.655-.023-1.313-.036-1.973-.036-31.145 0-56.394 25.248-56.394 56.394 0 .113.008.225.009.338 36.404 21.434 78.825 33.744 124.127 33.744 13.509 0 26.759-1.102 39.673-3.205l73.867-79.84 6.592-109.099c-11.246-7.64-24.815-12.116-39.438-12.116z"
            fill="#cbf1fa" />
        <path
            d="m421.389 362.606c-5.419 0-10.673.702-15.681 2.011-3.593-18.564-14.492-34.514-29.576-44.762-.857.124-73.526 10.879-57.066 90.014 0 0-57.661 25.889-23.393 98.925 75.04-12.222 138.629-58.532 174.364-122.52-11.32-14.409-28.901-23.668-48.648-23.668z"
            fill="#e8f8fc" />
    </g>
    <g />
    <g />
    <g />
    <g />
    <g />
    <g />
    <g />
    <g />
    <g />
    <g />
    <g />
    <g />
    <g />
    <g />
    <g />
</svg>