<svg id="Layer_1" height="512" viewBox="0 0 24 24" width="512" xmlns="http://www.w3.org/2000/svg"
    data-name="Layer 1">
    <g>
        <path
            d="m22 10.85v-2.45a2.057 2.057 0 0 0 -2.06-2.06h-1.34l-10.95-4.56a1.516 1.516 0 0 0 -2 .84l-1.49 3.72h-1.1a2.057 2.057 0 0 0 -2.06 2.06v11.88a2.057 2.057 0 0 0 2.06 2.06h16.88a2.057 2.057 0 0 0 2.06-2.06v-2.45a1.036 1.036 0 0 0 1-1.03v-4.92a1.036 1.036 0 0 0 -1-1.03zm-15.42-7.86a.5.5 0 0 1 .28-.29.553.553 0 0 1 .4 0l8.74 3.64h-2.42l-5.92-1.97a.5.5 0 0 0 -.63.29l-.65 1.68h-1.14zm3.84 3.35h-2.96l.33-.87zm10.58 13.94a1.061 1.061 0 0 1 -1.06 1.06h-16.88a1.061 1.061 0 0 1 -1.06-1.06v-11.88a1.067 1.067 0 0 1 1.06-1.06h16.88a1.067 1.067 0 0 1 1.06 1.06v2.44h-4.5a3.5 3.5 0 0 0 0 7h4.5zm1-3.48a.043.043 0 0 1 -.04.04h-5.46a2.5 2.5 0 0 1 0-5l5.5.04z" />
        <path
            d="m16.5 12.84a1.5 1.5 0 1 0 1.5 1.5 1.5 1.5 0 0 0 -1.5-1.5zm0 2a.5.5 0 1 1 .5-.5.5.5 0 0 1 -.5.5z" />
        <path d="m7 9.84a.5.5 0 0 1 -.5.5h-2a.5.5 0 0 1 0-1h2a.5.5 0 0 1 .5.5z" />
        <path d="m9 11.84a.5.5 0 0 1 -.5.5h-4a.5.5 0 0 1 0-1h4a.5.5 0 0 1 .5.5z" />
    </g>
</svg>